<mxfile host="app.diagrams.net" modified="2023-06-03T10:19:57.653Z" agent="Mozilla/5.0 (Windows NT 10.0; Win64; x64) AppleWebKit/537.36 (KHTML, like Gecko) Chrome/113.0.0.0 Safari/537.36" version="21.3.4" etag="_SHAHoLggHcUTF-jCkke" type="github">
  <diagram name="Page-1" id="9w1gq9wl1WCDfbBQlEDx">
    <mxGraphModel>
      <root>
        <mxCell id="0" />
        <mxCell id="1" parent="0" />
      </root>
    </mxGraphModel>
  </diagram>
</mxfile>
